<svg xmlns="http://www.w3.org/2000/svg" viewBox="0 0 512 512" role="img" aria-label="SaihAI favicon">
  <defs>
    <linearGradient id="bg" x1="0" y1="0" x2="1" y2="1">
      <stop offset="0" stop-color="#0b1022" />
      <stop offset="1" stop-color="#050816" />
    </linearGradient>
    <radialGradient id="glow" cx="0.24" cy="0.2" r="0.9">
      <stop offset="0" stop-color="#a855f7" stop-opacity="0.55" />
      <stop offset="0.42" stop-color="#22d3ee" stop-opacity="0.18" />
      <stop offset="1" stop-color="#000" stop-opacity="0" />
    </radialGradient>
    <linearGradient id="border" x1="0" y1="1" x2="1" y2="0">
      <stop offset="0" stop-color="#22d3ee" />
      <stop offset="0.5" stop-color="#6366f1" />
      <stop offset="1" stop-color="#f472b6" />
    </linearGradient>
    <linearGradient id="core" x1="0" y1="0" x2="1" y2="1">
      <stop offset="0" stop-color="#22d3ee" />
      <stop offset="0.55" stop-color="#6366f1" />
      <stop offset="1" stop-color="#f472b6" />
    </linearGradient>
    <filter id="softShadow" x="-20%" y="-20%" width="140%" height="140%">
      <feDropShadow dx="0" dy="12" stdDeviation="14" flood-color="#000" flood-opacity="0.45" />
      <feDropShadow dx="0" dy="0" stdDeviation="10" flood-color="#22d3ee" flood-opacity="0.12" />
      <feDropShadow dx="0" dy="0" stdDeviation="14" flood-color="#f472b6" flood-opacity="0.1" />
    </filter>
  </defs>

  <rect x="32" y="32" width="448" height="448" rx="120" fill="url(#bg)" />
  <rect x="32" y="32" width="448" height="448" rx="120" fill="url(#glow)" />
  <rect x="48" y="48" width="416" height="416" rx="112" fill="none" stroke="url(#border)" stroke-width="24" />

  <g filter="url(#softShadow)" stroke-linecap="round" stroke-linejoin="round">
    <path d="M170 190 L256 256 L360 180" fill="none" stroke="#a5b4fc" stroke-width="34" opacity="0.92" />
    <path d="M256 256 L308 366" fill="none" stroke="#a5b4fc" stroke-width="34" opacity="0.92" />

    <circle cx="256" cy="256" r="92" fill="url(#core)" />
    <circle cx="256" cy="256" r="92" fill="none" stroke="#fff" stroke-opacity="0.16" stroke-width="10" />

    <path
      d="M256 206 L273 244 L316 256 L273 268 L256 306 L239 268 L196 256 L239 244 Z"
      fill="#fff"
      opacity="0.92"
    />

    <circle cx="170" cy="190" r="38" fill="#f472b6" />
    <circle cx="360" cy="180" r="38" fill="#22d3ee" />
    <circle cx="308" cy="366" r="38" fill="#f59e0b" />

    <circle cx="170" cy="190" r="38" fill="none" stroke="#fff" stroke-opacity="0.18" stroke-width="10" />
    <circle cx="360" cy="180" r="38" fill="none" stroke="#fff" stroke-opacity="0.18" stroke-width="10" />
    <circle cx="308" cy="366" r="38" fill="none" stroke="#fff" stroke-opacity="0.18" stroke-width="10" />
  </g>
</svg>

